Insight 2011 DVDRiP AC3-5 1 XviD-SiC  

IMDB Link: 
http://www.imdb.com/title/tt1687277/

Description:
While attempting to save the life of a fatally-stabbed young woman, ER nurse Kaitlyn is accidentally electrocuted by a backfiring defibrillator. Upon awakening, she begins to experience memories that are not hers, but rather those of the now-deceased victim. With her sanity in question and nowhere to turn, Kaitlyn must weave through the womans past and piece together her memories before the killer strikes again.    

MediaInfo:
General
Complete name                    : Insight.2011.DVDRiP.AC3-5.1.XviD-SiC.avi
Format                           : AVI
Format/Info                      : Audio Video Interleave
File size                        : 1.37 GiB
Duration                         : 1h 31mn
Overall bit rate                 : 2 136 Kbps

Video
ID                               : 0
Format                           : MPEG-4 Visual
Format profile                   : Advanced Simple@L5
Format settings, BVOP            : 1
Format settings, QPel            : No
Format settings, GMC             : No warppoints
Format settings, Matrix          : Default (H.263)
Codec ID                         : XVID
Codec ID/Hint                    : XviD
Duration                         : 1h 31mn
Bit rate                         : 1 745 Kbps
Width                            : 720 pixels
Height                           : 400 pixels
Display aspect ratio             : 16:9
Frame rate                       : 23.976 fps
Color space                      : YUV
Chroma subsampling               : 4:2:0
Bit depth                        : 8 bits
Scan type                        : Progressive
Compression mode                 : Lossy
Bits/(Pixel*Frame)               : 0.253
Stream size                      : 1.12 GiB (82%)
Writing library                  : XviD 1.2.1 (UTC 2008-12-04)

Audio
ID                               : 1
Format                           : AC-3
Format/Info                      : Audio Coding 3
Mode extension                   : CM (complete main)
Codec ID                         : 2000
Duration                         : 1h 31mn
Bit rate mode                    : Constant
Bit rate                         : 384 Kbps
Channel(s)                       : 6 channels
Channel positions                : Front: L C R, Side: L R, LFE
Sampling rate                    : 48.0 KHz
Bit depth                        : 16 bits
Compression mode                 : Lossy
Stream size                      : 252 MiB (18%)
Alignment                        : Aligned on interleaves
Interleave, duration             : 64 ms (1.53 video frames)
Interleave, preload duration     : 192 ms
Title                            : VTS_01_1 T80 3_2ch 448Kbps DELAY 0ms_new


Note : Retail rip. We do all the work, so that you can needlessly run it through 
an encoding program and pretend you have a source. Enjoy. SiC gonna slay some "ZOMBiES".        

Source: Our own - big whoop, wanna fight about it? 

Enjoy!

Respects to T00NG0D, CM8, Rx, ELEKTRI4KA, PA, YeFsTe, MrRep and everyone in the struggle...RiP MU


Poster:

 
http://i.imgur.com/fDmxS.jpg


Screens:

 
http://i.imgur.com/zNGQb.png

 
http://i.imgur.com/NRWGQ.png

 
http://i.imgur.com/2SwsK.png


ENJOY!